<mxfile host="Electron" modified="2024-01-02T17:14:27.560Z" agent="Mozilla/5.0 (Windows NT 10.0; Win64; x64) AppleWebKit/537.36 (KHTML, like Gecko) draw.io/22.1.11 Chrome/114.0.5735.289 Electron/25.9.8 Safari/537.36" etag="DxATgcqY_5XZzPtr5A6W" version="22.1.11" type="device">
  <diagram name="Page-1" id="VbfStqZXUOYy4jiNICHf">
    <mxGraphModel dx="1730" dy="524" grid="1" gridSize="10" guides="1" tooltips="1" connect="1" arrows="1" fold="1" page="1" pageScale="1" pageWidth="850" pageHeight="1100" math="0" shadow="0">
      <root>
        <mxCell id="0" />
        <mxCell id="1" parent="0" />
        <mxCell id="jlJNsodlbyrqJWw7lyzG-1" value=":VENDOR_DASHBOARD_UI" style="rounded=0;whiteSpace=wrap;html=1;" vertex="1" parent="1">
          <mxGeometry x="100" y="330" width="160" height="60" as="geometry" />
        </mxCell>
        <mxCell id="jlJNsodlbyrqJWw7lyzG-2" value=":InventoryManagement" style="rounded=0;whiteSpace=wrap;html=1;" vertex="1" parent="1">
          <mxGeometry x="510" y="650" width="130" height="60" as="geometry" />
        </mxCell>
        <mxCell id="jlJNsodlbyrqJWw7lyzG-3" value="VENDOR_DASHBOARD" style="rounded=0;whiteSpace=wrap;html=1;" vertex="1" parent="1">
          <mxGeometry x="510" y="330" width="140" height="60" as="geometry" />
        </mxCell>
        <mxCell id="jlJNsodlbyrqJWw7lyzG-4" value=":SalesAnalytics" style="rounded=0;whiteSpace=wrap;html=1;" vertex="1" parent="1">
          <mxGeometry x="290" y="590" width="120" height="60" as="geometry" />
        </mxCell>
        <mxCell id="jlJNsodlbyrqJWw7lyzG-5" value=":ProductManagement" style="rounded=0;whiteSpace=wrap;html=1;" vertex="1" parent="1">
          <mxGeometry x="720" y="590" width="120" height="60" as="geometry" />
        </mxCell>
        <mxCell id="jlJNsodlbyrqJWw7lyzG-6" value="" style="endArrow=none;html=1;rounded=0;exitX=1;exitY=0.5;exitDx=0;exitDy=0;entryX=0;entryY=0.5;entryDx=0;entryDy=0;" edge="1" parent="1" source="jlJNsodlbyrqJWw7lyzG-1" target="jlJNsodlbyrqJWw7lyzG-3">
          <mxGeometry width="50" height="50" relative="1" as="geometry">
            <mxPoint x="430" y="460" as="sourcePoint" />
            <mxPoint x="480" y="410" as="targetPoint" />
          </mxGeometry>
        </mxCell>
        <mxCell id="jlJNsodlbyrqJWw7lyzG-7" value="" style="endArrow=none;html=1;rounded=0;exitX=0.5;exitY=0;exitDx=0;exitDy=0;entryX=0.5;entryY=1;entryDx=0;entryDy=0;" edge="1" parent="1" source="jlJNsodlbyrqJWw7lyzG-4" target="jlJNsodlbyrqJWw7lyzG-3">
          <mxGeometry width="50" height="50" relative="1" as="geometry">
            <mxPoint x="490" y="500" as="sourcePoint" />
            <mxPoint x="540" y="450" as="targetPoint" />
          </mxGeometry>
        </mxCell>
        <mxCell id="jlJNsodlbyrqJWw7lyzG-8" value="" style="endArrow=none;html=1;rounded=0;exitX=0.5;exitY=0;exitDx=0;exitDy=0;entryX=0.5;entryY=1;entryDx=0;entryDy=0;" edge="1" parent="1" source="jlJNsodlbyrqJWw7lyzG-2" target="jlJNsodlbyrqJWw7lyzG-3">
          <mxGeometry width="50" height="50" relative="1" as="geometry">
            <mxPoint x="360" y="600" as="sourcePoint" />
            <mxPoint x="580" y="400" as="targetPoint" />
          </mxGeometry>
        </mxCell>
        <mxCell id="jlJNsodlbyrqJWw7lyzG-9" value="" style="endArrow=none;html=1;rounded=0;exitX=0.5;exitY=0;exitDx=0;exitDy=0;entryX=0.5;entryY=1;entryDx=0;entryDy=0;" edge="1" parent="1" source="jlJNsodlbyrqJWw7lyzG-5" target="jlJNsodlbyrqJWw7lyzG-3">
          <mxGeometry width="50" height="50" relative="1" as="geometry">
            <mxPoint x="580" y="660" as="sourcePoint" />
            <mxPoint x="580" y="400" as="targetPoint" />
          </mxGeometry>
        </mxCell>
        <mxCell id="jlJNsodlbyrqJWw7lyzG-10" value="Vendor" style="shape=umlActor;verticalLabelPosition=bottom;verticalAlign=top;html=1;outlineConnect=0;" vertex="1" parent="1">
          <mxGeometry x="-120" y="330" width="30" height="60" as="geometry" />
        </mxCell>
        <mxCell id="jlJNsodlbyrqJWw7lyzG-13" value="" style="endArrow=none;html=1;rounded=0;exitX=0.5;exitY=0.5;exitDx=0;exitDy=0;exitPerimeter=0;entryX=0;entryY=0.5;entryDx=0;entryDy=0;" edge="1" parent="1" source="jlJNsodlbyrqJWw7lyzG-10" target="jlJNsodlbyrqJWw7lyzG-1">
          <mxGeometry width="50" height="50" relative="1" as="geometry">
            <mxPoint x="60" y="480" as="sourcePoint" />
            <mxPoint x="110" y="430" as="targetPoint" />
          </mxGeometry>
        </mxCell>
        <mxCell id="jlJNsodlbyrqJWw7lyzG-14" value="" style="endArrow=classic;html=1;rounded=0;" edge="1" parent="1">
          <mxGeometry width="50" height="50" relative="1" as="geometry">
            <mxPoint x="-80" y="350" as="sourcePoint" />
            <mxPoint x="90" y="350" as="targetPoint" />
          </mxGeometry>
        </mxCell>
        <mxCell id="jlJNsodlbyrqJWw7lyzG-19" value="1. addProducts()" style="edgeLabel;html=1;align=center;verticalAlign=middle;resizable=0;points=[];" vertex="1" connectable="0" parent="jlJNsodlbyrqJWw7lyzG-14">
          <mxGeometry x="-0.1748" relative="1" as="geometry">
            <mxPoint x="10" y="-10" as="offset" />
          </mxGeometry>
        </mxCell>
        <mxCell id="jlJNsodlbyrqJWw7lyzG-15" value="1.1. recordAddProduct()&amp;nbsp;" style="endArrow=classic;html=1;rounded=0;" edge="1" parent="1">
          <mxGeometry x="-0.0476" y="10" width="50" height="50" relative="1" as="geometry">
            <mxPoint x="280" y="350" as="sourcePoint" />
            <mxPoint x="490" y="350" as="targetPoint" />
            <mxPoint as="offset" />
          </mxGeometry>
        </mxCell>
        <mxCell id="jlJNsodlbyrqJWw7lyzG-16" value="" style="endArrow=classic;html=1;rounded=0;" edge="1" parent="1">
          <mxGeometry width="50" height="50" relative="1" as="geometry">
            <mxPoint x="540" y="440" as="sourcePoint" />
            <mxPoint x="390" y="580" as="targetPoint" />
          </mxGeometry>
        </mxCell>
        <mxCell id="jlJNsodlbyrqJWw7lyzG-32" value="3.1.1. getSalesAnalytics()" style="edgeLabel;html=1;align=center;verticalAlign=middle;resizable=0;points=[];rotation=-45;" vertex="1" connectable="0" parent="jlJNsodlbyrqJWw7lyzG-16">
          <mxGeometry x="0.3093" y="3" relative="1" as="geometry">
            <mxPoint x="26" y="-14" as="offset" />
          </mxGeometry>
        </mxCell>
        <mxCell id="jlJNsodlbyrqJWw7lyzG-17" value="" style="endArrow=classic;html=1;rounded=0;" edge="1" parent="1">
          <mxGeometry x="0.8947" y="-130" width="50" height="50" relative="1" as="geometry">
            <mxPoint x="590" y="450" as="sourcePoint" />
            <mxPoint x="590" y="640" as="targetPoint" />
            <mxPoint as="offset" />
          </mxGeometry>
        </mxCell>
        <mxCell id="jlJNsodlbyrqJWw7lyzG-18" value="" style="endArrow=classic;html=1;rounded=0;" edge="1" parent="1">
          <mxGeometry width="50" height="50" relative="1" as="geometry">
            <mxPoint x="640" y="430" as="sourcePoint" />
            <mxPoint x="780" y="570" as="targetPoint" />
          </mxGeometry>
        </mxCell>
        <mxCell id="jlJNsodlbyrqJWw7lyzG-20" value="1.1.1. setProduct()" style="edgeLabel;html=1;align=center;verticalAlign=middle;resizable=0;points=[];rotation=45;" vertex="1" connectable="0" parent="jlJNsodlbyrqJWw7lyzG-18">
          <mxGeometry x="-0.2394" y="3" relative="1" as="geometry">
            <mxPoint x="35" y="19" as="offset" />
          </mxGeometry>
        </mxCell>
        <mxCell id="jlJNsodlbyrqJWw7lyzG-26" value="2.1.1. getInventoryPrediction()" style="edgeLabel;html=1;align=center;verticalAlign=middle;resizable=0;points=[];rotation=90;" vertex="1" connectable="0" parent="jlJNsodlbyrqJWw7lyzG-18">
          <mxGeometry x="-0.2394" y="3" relative="1" as="geometry">
            <mxPoint x="-95" y="59" as="offset" />
          </mxGeometry>
        </mxCell>
        <mxCell id="jlJNsodlbyrqJWw7lyzG-21" value="" style="endArrow=classic;html=1;rounded=0;" edge="1" parent="1">
          <mxGeometry width="50" height="50" relative="1" as="geometry">
            <mxPoint x="480" y="370" as="sourcePoint" />
            <mxPoint x="280" y="370" as="targetPoint" />
          </mxGeometry>
        </mxCell>
        <mxCell id="jlJNsodlbyrqJWw7lyzG-22" value="1.1.1.1. displayAddedProduct()" style="edgeLabel;html=1;align=center;verticalAlign=middle;resizable=0;points=[];" vertex="1" connectable="0" parent="jlJNsodlbyrqJWw7lyzG-21">
          <mxGeometry x="-0.36" relative="1" as="geometry">
            <mxPoint x="-26" y="10" as="offset" />
          </mxGeometry>
        </mxCell>
        <mxCell id="jlJNsodlbyrqJWw7lyzG-23" value="" style="endArrow=classic;html=1;rounded=0;" edge="1" parent="1">
          <mxGeometry width="50" height="50" relative="1" as="geometry">
            <mxPoint x="-80" y="370" as="sourcePoint" />
            <mxPoint x="90" y="370" as="targetPoint" />
          </mxGeometry>
        </mxCell>
        <mxCell id="jlJNsodlbyrqJWw7lyzG-24" value="2.manageInvenetory()" style="edgeLabel;html=1;align=center;verticalAlign=middle;resizable=0;points=[];" vertex="1" connectable="0" parent="jlJNsodlbyrqJWw7lyzG-23">
          <mxGeometry x="0.5882" y="-3" relative="1" as="geometry">
            <mxPoint x="-55" y="7" as="offset" />
          </mxGeometry>
        </mxCell>
        <mxCell id="jlJNsodlbyrqJWw7lyzG-25" value="2.1. recordManageInventory()" style="endArrow=classic;html=1;rounded=0;" edge="1" parent="1">
          <mxGeometry x="-0.0476" y="10" width="50" height="50" relative="1" as="geometry">
            <mxPoint x="280" y="329" as="sourcePoint" />
            <mxPoint x="490" y="329" as="targetPoint" />
            <mxPoint as="offset" />
          </mxGeometry>
        </mxCell>
        <mxCell id="jlJNsodlbyrqJWw7lyzG-27" value="" style="endArrow=classic;html=1;rounded=0;" edge="1" parent="1">
          <mxGeometry width="50" height="50" relative="1" as="geometry">
            <mxPoint x="480" y="390" as="sourcePoint" />
            <mxPoint x="280" y="390" as="targetPoint" />
          </mxGeometry>
        </mxCell>
        <mxCell id="jlJNsodlbyrqJWw7lyzG-28" value="2.1.1.1. displayInventoryPrediction()" style="edgeLabel;html=1;align=center;verticalAlign=middle;resizable=0;points=[];" vertex="1" connectable="0" parent="jlJNsodlbyrqJWw7lyzG-27">
          <mxGeometry x="-0.36" relative="1" as="geometry">
            <mxPoint x="-26" y="10" as="offset" />
          </mxGeometry>
        </mxCell>
        <mxCell id="jlJNsodlbyrqJWw7lyzG-29" value="" style="endArrow=classic;html=1;rounded=0;" edge="1" parent="1">
          <mxGeometry width="50" height="50" relative="1" as="geometry">
            <mxPoint x="-80" y="390" as="sourcePoint" />
            <mxPoint x="90" y="390" as="targetPoint" />
          </mxGeometry>
        </mxCell>
        <mxCell id="jlJNsodlbyrqJWw7lyzG-30" value="3.requestSalesAnalytics()" style="edgeLabel;html=1;align=center;verticalAlign=middle;resizable=0;points=[];" vertex="1" connectable="0" parent="jlJNsodlbyrqJWw7lyzG-29">
          <mxGeometry x="0.5882" y="-3" relative="1" as="geometry">
            <mxPoint x="-55" y="7" as="offset" />
          </mxGeometry>
        </mxCell>
        <mxCell id="jlJNsodlbyrqJWw7lyzG-31" value="3.1. recordSalesAnalytics" style="endArrow=classic;html=1;rounded=0;" edge="1" parent="1">
          <mxGeometry x="-0.0476" y="10" width="50" height="50" relative="1" as="geometry">
            <mxPoint x="280" y="310" as="sourcePoint" />
            <mxPoint x="490" y="310" as="targetPoint" />
            <mxPoint as="offset" />
          </mxGeometry>
        </mxCell>
        <mxCell id="jlJNsodlbyrqJWw7lyzG-33" value="" style="endArrow=classic;html=1;rounded=0;" edge="1" parent="1">
          <mxGeometry width="50" height="50" relative="1" as="geometry">
            <mxPoint x="480" y="410" as="sourcePoint" />
            <mxPoint x="280" y="410" as="targetPoint" />
          </mxGeometry>
        </mxCell>
        <mxCell id="jlJNsodlbyrqJWw7lyzG-34" value="3.1.1.1. displaySalesAnalytics()" style="edgeLabel;html=1;align=center;verticalAlign=middle;resizable=0;points=[];" vertex="1" connectable="0" parent="jlJNsodlbyrqJWw7lyzG-33">
          <mxGeometry x="-0.36" relative="1" as="geometry">
            <mxPoint x="-26" y="10" as="offset" />
          </mxGeometry>
        </mxCell>
      </root>
    </mxGraphModel>
  </diagram>
</mxfile>
